Coordinates
version=1
nRows=14
nColumns=24
inDegrees=yes

Units are S.I. units (second, meters, Newtons, ...)
Angles are in degrees.

endheader
time	pelvis_tilt	pelvis_list	pelvis_rotation	pelvis_tx	pelvis_ty	pelvis_tz	hip_flexion_r	hip_adduction_r	hip_rotation_r	knee_angle_r	ankle_angle_r	subtalar_angle_r	mtp_angle_r	hip_flexion_l	hip_adduction_l	hip_rotation_l	knee_angle_l	ankle_angle_l	subtalar_angle_l	mtp_angle_l	lumbar_extension	lumbar_bending	lumbar_rotation
      0.91616667	      1.67708862	     -2.47794965	     -0.38578661	     -0.17212766	      0.98773453	      0.30898944	    -14.52775969	      7.12632642	     -1.37043067	    -10.44658550	     13.23158761	    -10.06535673	     -7.81301747	     22.97610779	     -0.57229330	     -1.59383690	    -10.02713369	     -0.97210149	     -3.26888735	      0.10529591	     -3.24666100	      6.44355507	      7.49035666
      0.92033333	      1.67834087	     -2.41062874	     -0.42597431	     -0.16607640	      0.98730630	      0.30872525	    -14.48018400	      7.00089218	     -1.35286796	    -11.26517106	     13.32635737	    -10.04583745	     -7.15980337	     22.79854643	     -0.41591821	     -1.46229739	     -9.99268410	     -1.31600547	     -3.43788931	      2.77773260	     -3.20170937	      6.36972139	      7.47349340
      0.92450000	      1.61297100	     -2.36221502	     -0.45502651	     -0.16002034	      0.98682834	      0.30848168	    -14.33975437	      6.90981988	     -1.26886478	    -12.11508463	     13.30809992	    -10.19220940	     -7.13938528	     22.74084811	     -0.28722271	     -1.37016667	    -10.12326885	     -1.60072021	     -3.41624530	      2.79930373	     -3.07547226	      6.31235041	      7.47423255
      0.92866667	      1.53315104	     -2.30863812	     -0.48782981	     -0.15394910	      0.98638929	      0.30819447	    -14.13010176	      6.80183579	     -1.22832431	    -13.06754749	     13.31239174	    -10.22205185	     -7.07472687	     22.66288961	     -0.13752159	     -1.14175688	    -10.24386420	     -1.92868371	     -3.63495448	      2.86554504	     -2.91137418	      6.26525331	      7.48533255
      0.93283333	      1.50956233	     -2.21017024	     -0.49880779	     -0.14782140	      0.98606885	      0.30791208	    -13.96768040	      6.65003867	     -1.22648259	    -14.03576326	     13.21063323	    -10.28233312	     -7.02212454	     22.54493154	      0.05281180	     -0.98578739	    -10.46104050	     -2.27773568	     -3.76877346	      2.91608223	     -2.82901899	      6.13924058	      7.47060234
      0.93700000	      1.42540053	     -2.14178317	     -0.52195466	     -0.14171610	      0.98571295	      0.30759663	    -13.67225777	      6.51770069	     -1.24590670	    -15.12877558	     13.12473331	    -10.21699133	     -6.90211335	     22.46641787	      0.22327347	     -0.69373390	    -10.66831501	     -2.65770574	     -4.11835917	      3.01937834	     -2.65233628	      6.07590905	      7.45266980
      0.94116667	      1.37674480	     -2.04775572	     -0.52578682	     -0.13558707	      0.98544059	      0.30725611	    -13.38504629	      6.35592022	     -1.30829844	    -16.26680741	     12.96167928	    -10.12422724	     -6.71330485	     22.36451178	      0.42211809	     -0.42333701	    -10.94376821	     -3.05185135	     -4.48209717	      3.16557860	     -2.53262778	      5.96960239	      7.41825279
      0.94533333	      1.35250271	     -1.94303488	     -0.51923237	     -0.12945430	      0.98523118	      0.30689551	    -13.08823181	      6.17801820	     -1.40033875	    -17.46002771	     12.72976950	    -10.00396526	     -6.41830629	     22.25480152	      0.63180256	     -0.17341653	    -11.28884017	     -3.43412447	     -4.87710140	      3.36628688	     -2.44207779	      5.85016053	      7.37483278
      0.94950000	      1.32544658	     -1.81781583	     -0.51658347	     -0.12328539	      0.98505014	      0.30653017	    -12.73813990	      5.96015790	     -1.55816459	    -18.72995143	     12.37455771	     -9.86374536	     -1.88941420	     22.14717466	      0.84987826	      0.01177715	    -11.65690774	     -3.79530834	     -5.12987797	      5.94992539	     -2.33775777	      5.70034198	      7.33252852
      0.95366667	      1.26940209	     -1.71930274	     -0.50820779	     -0.11715022	      0.98489591	      0.30617513	    -12.33691017	      5.79302519	     -1.59105535	    -20.02419636	     11.95394403	     -9.92870987	     -1.79899772	     22.06997922	      1.04918937	      0.28608417	    -12.04415507	     -4.16989053	     -5.57563487	      5.91487869	     -2.20296007	      5.58447833	      7.26615471
      0.95783333	      1.22496787	     -1.59201362	     -0.49960865	     -0.11098962	      0.98479249	      0.30580374	    -11.89187375	      5.57596415	     -1.70604285	    -21.41083836	     11.48891647	     -9.85209509	     -1.67025172	     21.97360616	      1.27173861	      0.52269982	    -12.43952774	     -4.48999966	     -5.93061607	      5.89687495	     -2.06622529	      5.43441870	      7.20104535
      0.96200000	      1.17631115	     -1.46351115	     -0.48025653	     -0.10486105	      0.98469385	      0.30539516	    -11.39497186	      5.34804248	     -1.85229700	    -22.86616971	     10.95645273	     -9.71211972	     -1.48256342	     21.90036794	      1.49902339	      0.75925828	    -12.88192459	     -4.77900779	     -6.34004116	      5.88429571	     -1.93936659	      5.28582816	      7.12626561
      0.96616667	      1.12667285	     -1.33245268	     -0.44726511	     -0.09876888	      0.98459830	      0.30494694	    -10.85148099	      5.10704649	     -2.02975134	    -24.38423170	     10.37265088	     -9.49425830	     -1.15845376	     21.85350828	      1.73320433	      0.98926802	    -13.38355902	     -5.03858909	     -6.81811414	      5.87121727	     -1.82731302	      5.13818407	      7.02955957
      0.97033333	      1.20404834	     -1.09718297	     -0.40602210	     -0.09261048	      0.98473242	      0.30443636	    -10.40365351	      4.71553733	     -2.34873940	    -25.96831113	      9.73128850	     -9.12261713	      0.32423959	     21.59185042	      2.08454518	      1.24890686	    -13.74107247	     -5.33785436	     -7.32371097	      5.82318389	     -1.85127336	      4.85517249	      6.90421174
